<svg id="svg16" xmlns="http://www.w3.org/2000/svg" xmlns:xlink="http://www.w3.org/1999/xlink" viewBox="0 0 413.9 167.61"><defs><style>.cls-1{fill:#32242e;fill-opacity:0.53;}.cls-1,.cls-10,.cls-2,.cls-6,.cls-7,.cls-8{opacity:0.86;}.cls-1,.cls-10,.cls-11,.cls-12,.cls-2,.cls-6,.cls-7,.cls-8{isolation:isolate;}.cls-2{fill:#2c202a;}.cls-3{fill:#f2f2f2;}.cls-4,.cls-5,.cls-7{fill:#fff;}.cls-5,.cls-9{stroke:#fff;}.cls-5{stroke-miterlimit:32;stroke-width:0.62px;}.cls-6{fill:#f5b5fc;}.cls-8{filter:url(#filter12286);}.cls-9{fill:none;stroke-miterlimit:5.98;stroke-width:0.33px;}.cls-10{fill:#fff5fd;}.cls-12{font-size:51.81px;font-family:Arial-BoldMT, Arial;font-weight:700;}.cls-13{letter-spacing:-0.06em;}</style><filter id="filter12286" x="-0.03" y="-0.03" width="1.06" height="1.06" name="filter12286"><feGaussianBlur result="feGaussianBlur12288"/></filter></defs><g id="Outline"><path id="path9" d="M137.17,256.89a8.38,8.38,0,1,0-8.38,8.38A8.38,8.38,0,0,0,137.17,256.89Zm-11.18,0a2.8,2.8,0,1,1,2.8,2.79A2.79,2.79,0,0,1,126,256.89Z" transform="translate(-72.91 -167.51)"/><path id="path11" d="M140,273.65c-8.07,0-16.76,2.62-16.76,8.39s8.69,8.38,16.76,8.38,16.77-2.62,16.77-8.38S148,273.65,140,273.65Zm0,11.18c-6.55,0-10.38-1.88-11.1-2.79.72-.92,4.55-2.8,11.1-2.8s10.39,1.88,11.11,2.8C150.35,283,146.52,284.83,140,284.83Z" transform="translate(-72.91 -167.51)"/><path id="path13" d="M239.73,190.65,217.38,168.3a2.79,2.79,0,0,0-3.95,3.95l3.61,3.61-10,10-3.61-3.61a2.79,2.79,0,1,0-4,3.88l.07.07.82.82L160.34,227a2.79,2.79,0,0,0,0,3.95l1.37,1.37-1.24,2.47a39.52,39.52,0,0,0-12.12-5v-8.66a10.6,10.6,0,0,0,5.58-8.9c0-6.16-6.26-11.17-14-11.17s-14,5-14,11.17a10.62,10.62,0,0,0,5.59,8.89v8.51a38.7,38.7,0,0,0-12.94,5.31l-6-6a10.61,10.61,0,0,0-2.33-10.23c-4.36-4.36-12.34-3.47-17.78,2s-6.34,13.43-2,17.79a9.85,9.85,0,0,0,7.09,2.76,12.86,12.86,0,0,0,3.15-.43l6,6a39,39,0,0,0-5.32,12.94H93a10.6,10.6,0,0,0-8.89-5.58c-6.16,0-11.17,6.26-11.17,14s5,14,11.17,14A10.63,10.63,0,0,0,93,276.45h8.63A38.78,38.78,0,0,0,107,289.16l-6.21,6.21a10.61,10.61,0,0,0-10.23,2.33c-4.36,4.36-3.47,12.34,2,17.78a15.41,15.41,0,0,0,10.69,4.75,9.85,9.85,0,0,0,7.09-2.76,10.62,10.62,0,0,0,2.33-10.24l6.31-6.31A38.88,38.88,0,0,0,131.58,306v9.06A10.63,10.63,0,0,0,126,324c0,6.16,6.27,11.17,14,11.17s14-5,14-11.17a10.6,10.6,0,0,0-5.58-8.89v-9.22a38.7,38.7,0,0,0,12.37-5.17l6.55,6.55a10.61,10.61,0,0,0,2.33,10.23,9.85,9.85,0,0,0,7.09,2.77,15.49,15.49,0,0,0,10.69-4.75c5.45-5.45,6.33-13.41,2-17.79a10.62,10.62,0,0,0-10.24-2.32l-6.56-6.57a38.61,38.61,0,0,0,5.2-12.34H187a10.62,10.62,0,0,0,8.88,5.59c6.17,0,11.18-6.27,11.18-14s-5-14-11.18-14a10.59,10.59,0,0,0-8.88,5.58h-9.09a39.18,39.18,0,0,0-4.75-12.05l2.63-1.31,1.37,1.37a2.79,2.79,0,0,0,3.95,0L221,207.75l.82.82a2.79,2.79,0,0,0,3.95-3.95L222.15,201l10-10,3.61,3.61a2.79,2.79,0,0,0,3.95-3.95ZM84.08,276.45c-3,0-5.59-3.84-5.59-8.38s2.56-8.39,5.59-8.39,5.59,3.84,5.59,8.39S87.11,276.45,84.08,276.45Zm111.76-16.77c3,0,5.59,3.84,5.59,8.39s-2.56,8.38-5.59,8.38-5.58-3.84-5.58-8.38S192.82,259.68,195.84,259.68Zm-30.17-14.57-2.74-2.74,2.95-5.91,5.7,5.69ZM140,206.6c4.55,0,8.39,2.56,8.39,5.58s-3.84,5.59-8.39,5.59-8.38-2.56-8.38-5.59S135.42,206.6,140,206.6ZM94.52,234.48c-2.14-2.14-1.23-6.67,2-9.88a10,10,0,0,1,6.73-3.14,4.38,4.38,0,0,1,3.15,1.16c2.14,2.15,1.23,6.67-2,9.88S96.66,236.62,94.52,234.48Zm11.67,3.77a16.33,16.33,0,0,0,4-3.93l3.94,3.94a38.76,38.76,0,0,0-4,4Zm.19,75.26c-2.14,2.14-6.67,1.24-9.88-2s-4.12-7.74-2-9.88,6.67-1.24,9.88,2S108.52,311.37,106.38,313.51Zm3.79-11.7a17.64,17.64,0,0,0-1.82-2.13,16.78,16.78,0,0,0-2.13-1.82l4.21-4.21a40.81,40.81,0,0,0,4,3.91ZM140,329.54c-4.54,0-8.38-2.56-8.38-5.59s3.84-5.59,8.38-5.59,8.39,2.56,8.39,5.59S144.51,329.54,140,329.54Zm42.3-29.06a4.36,4.36,0,0,1,3.15,1.16c2.14,2.14,1.23,6.67-2,9.88s-7.74,4.12-9.88,2-1.24-6.67,2-9.88A10,10,0,0,1,182.26,300.48Zm-8.55-2.63a17.35,17.35,0,0,0-4,3.95l-4.53-4.52a39.91,39.91,0,0,0,4-4Zm-1.58-38.17H167.9a2.8,2.8,0,0,0,0,5.59h17a16.92,16.92,0,0,0,0,5.59h-17a2.8,2.8,0,0,0,0,5.59h4.16a33.62,33.62,0,0,1-23.71,23.66V298.8a2.8,2.8,0,0,0-5.59,0V313a17.47,17.47,0,0,0-5.59,0V298.8a2.8,2.8,0,0,0-5.59,0v1.49a33.6,33.6,0,0,1-24.27-23.84H112a2.8,2.8,0,1,0,0-5.59H95a17.47,17.47,0,0,0,0-5.59h17a2.8,2.8,0,1,0,0-5.59h-4.87a33.62,33.62,0,0,1,24.43-24.4v4.84a2.8,2.8,0,1,0,5.59,0v-17a16.92,16.92,0,0,0,5.59,0v17a2.8,2.8,0,1,0,5.59,0v-4.68a33.76,33.76,0,0,1,9.62,4.33l-.95,1.9a2.78,2.78,0,0,0,.53,3.22l.82.82L140.78,263.3a2.79,2.79,0,0,0,3.95,3.95h0l17.59-17.59.81.82a2.79,2.79,0,0,0,2,.82,2.86,2.86,0,0,0,1.25-.29l1.74-.87A34,34,0,0,1,172.13,259.68Zm7-17.92L166.27,229l4-4,1.77,1.77a2.79,2.79,0,0,0,3.95-4L174.26,221l4.15-4.16,1.78,1.77a2.79,2.79,0,0,0,3.95-.06,2.82,2.82,0,0,0,0-3.89l-1.78-1.77,4.16-4.16,1.77,1.78a2.79,2.79,0,0,0,4-3.95l-1.77-1.78,4.16-4.15,1.77,1.77a2.79,2.79,0,1,0,4-3.88.23.23,0,0,0-.07-.07l-1.77-1.77,5.65-5.65L217,203.8Zm39.12-44.7L211,189.83l10-10,7.23,7.23Z" transform="translate(-72.91 -167.51)"/></g><path id="path1980" d="M0,0" transform="translate(-72.91 -167.51)"/><path id="path5776" class="cls-1" d="M134.33,333.8c-4.3-1.57-7.28-4.84-7.93-8.69-.44-2.6,1.57-7.15,3.88-8.8,1.63-1.16,1.64-1.21,1.64-5.82v-4.65l-3-.87a46.31,46.31,0,0,1-6.49-2.61l-3.48-1.74-3.16,3.23c-3.13,3.2-3.17,3.26-3.11,6.14.13,6.08-4.45,10.41-10.37,9.8-12-1.24-19-17-10.08-22.86,1.68-1.11,2.8-1.41,5.51-1.48l3.41-.09,3.1-3.1,3.1-3.1-1.83-3.37a44.21,44.21,0,0,1-2.76-6.39l-.93-3H97.23c-4.47,0-4.62,0-5.68,1.53a10.3,10.3,0,0,1-3.35,2.62c-5.29,2.56-10.36.42-13.51-5.73-1.88-3.65-1.78-9.72.23-13.81,3.57-7.26,10.55-8.64,16-3.16l2.32,2.32,4.16-.15,4.16-.15,1.2-3.78a42.51,42.51,0,0,1,2.8-6.62l1.6-2.83-3-2.91c-3-2.92-3-2.92-6.71-3.11-3.1-.16-4.06-.44-5.64-1.65a11.5,11.5,0,0,1-2.78-3.14c-1.1-2.12-1.09-6.82,0-9.47,2.79-6.68,10.65-11.38,16.44-9.82,4.61,1.24,7.15,4.72,7.12,9.75,0,3.08,0,3.2,2.65,5.9a13,13,0,0,0,3.28,2.75,12.75,12.75,0,0,0,3.08-1.38,41.1,41.1,0,0,1,6.24-2.57l3.75-1.19.15-4.22.16-4.21L129.62,219c-5.27-5.26-4.06-12,2.82-15.77s16.95-1.37,20.24,5c1.8,3.48.18,9.49-3.16,11.68-1.26.82-1.33,1.12-1.33,5.54v4.67l1.71.36a44,44,0,0,1,6.15,2.42c4.14,1.92,4.5,2,5.12,1.16.89-1.22.84-1.63-.39-3.19a4.86,4.86,0,0,1-1.05-2.17c0-.46,9.23-10.06,20.5-21.35,17.79-17.81,20.39-20.61,19.67-21.2a2.66,2.66,0,0,1-.18-3.59c1.15-1.15,2.71-.66,5,1.58l2.25,2.21,5.22-5.2,5.22-5.19-2.34-2.51a13.78,13.78,0,0,1-2.34-2.93c0-.92,1.68-2.76,2.53-2.76,1.31,0,24.76,23.63,24.76,24.95a2.77,2.77,0,0,1-.63,1.7c-1.15,1.16-2.72.66-5-1.58l-2.26-2.21-5,5c-2.74,2.72-5,5.19-5,5.47a10.2,10.2,0,0,0,2.15,2.71c1.65,1.68,2.07,2.45,1.8,3.3a2.36,2.36,0,0,1-3.79,1.35l-1.35-.88-20.28,20.25C179.27,249.21,179,249.43,176.81,247c-.86-.94-1.06-1-2.42-.26l-1.49.77,1.5,3.18a53.62,53.62,0,0,1,2.44,6.3l.93,3.11h4.59c4.48,0,4.62,0,5.68-1.54,2.59-3.63,7.77-5.13,11.35-3.29,5.64,2.9,8.51,9.8,6.81,16.42-2,7.91-8.09,11.72-14.22,8.94a12.06,12.06,0,0,1-3.52-2.63l-1.41-1.67-4.76.15-4.76.15-1.21,3.45a48.77,48.77,0,0,1-2.7,6.19L172.13,289l3.2,3.2,3.2,3.2,3.67.05c3.27,0,3.9.24,5.69,1.67a9.37,9.37,0,0,1,3.85,7.83c0,7.33-7.76,15-15.1,14.95a9.5,9.5,0,0,1-9.38-10.72c.29-2.15.22-2.28-3.07-5.54l-3.36-3.34-2.66,1.45a47.44,47.44,0,0,1-6.18,2.63l-3.54,1.19-.15,4.81-.15,4.8,1.94,1.7c7.7,6.77,1.48,17.8-10,17.68a21.61,21.61,0,0,1-5.78-.79Zm8.85-4.47c2.6-.72,5.54-3.57,5.54-5.36s-2.27-4.36-4.61-5.13c-8.08-2.68-16.34,3.58-11.14,8.44a10.82,10.82,0,0,0,10.21,2.05Zm-36.48-16c1.38-1.76,1.38-4,0-6.85-3.73-7.7-14.28-8.3-13.44-.76a10.56,10.56,0,0,0,9.91,9c2,0,2.64-.23,3.54-1.37Zm74.86,0c4.79-3.1,6.78-9.4,3.82-12.08-1.23-1.11-5-1.13-7.08,0a14.11,14.11,0,0,0-5.41,5.76c-.92,2.43-.69,5.48.49,6.66,1.58,1.58,5.49,1.43,8.18-.31Zm-38.62-7a44,44,0,0,1,.52-8.15c1-2.68,3.42-2.33,4.43.64l.56,1.63,2.86-1a33.84,33.84,0,0,0,18.29-16.26c3.19-6.6,3.21-6.79.8-6.8-3,0-4.63-1-4.63-2.87,0-2.07.85-2.26,10.89-2.32l8.26-.05v-6.3h-8.36c-9.23,0-11.05-.37-11.05-2.24s1-2.48,4.08-2.48h2.82l-.37-1.71c-.48-2.27-3.21-8.26-3.75-8.26a12.68,12.68,0,0,0-2.08.48,2.85,2.85,0,0,1-2.8-.33c-1.09-.76-1.45-.48-9.88,7.85-4.81,4.75-9.26,8.9-9.88,9.23-.92.48-1.36.41-2.34-.39l-1.22-1,1.56-2.27c.86-1.26,5-5.83,9.23-10.17,7.53-7.72,7.66-7.9,6.87-9.1-.7-1-.72-1.5-.16-3.06a5.21,5.21,0,0,0,.49-2,51.06,51.06,0,0,0-9-3.94c-.71,0-.94.45-1,2-.11,4.22-1.8,6.18-4,4.59-.87-.63-1-1.68-1.15-10l-.17-9.25-3,.15-3,.16-.32,9.44c-.17,5.2-.35,9.48-.39,9.52-.57.52-2.35.43-3.19-.16s-1.09-1.32-1.09-3.89v-3.13l-1.44.33a43.9,43.9,0,0,0-5.64,2.33C117.72,241,111,248.13,108.41,255c-2,5.5-2.19,5,1.84,5.22,3.52.15,3.57.17,3.75,1.7.3,2.64-.69,2.91-10.43,2.91H94.84l0,3.15,0,3.15h8.24c9.58,0,10.93.32,10.93,2.62,0,1.87-1.39,2.63-4.82,2.63-2,0-2.11.05-1.78,1.44a40.74,40.74,0,0,0,2.23,5.38,34.53,34.53,0,0,0,14.91,14.65,49.3,49.3,0,0,0,5.85,2.44c1.32.31,1.45.21,1.45-1.19,0-1.8.83-2.78,2.36-2.78,2.09,0,2.36.91,2.36,8.19a56.83,56.83,0,0,0,.32,7.77c.23.61,1.05.83,3.15.83h2.82ZM112.6,295.42l-2.16-2.05-2.22,2.26L106,297.9l2.06,2.11,2.06,2.11,2.32-2.32,2.32-2.33Zm59.27,4.52,2.16-2.16-2.43-2.43-2.42-2.42L167,295.15l-2.22,2.21,2.32,2.37a30.16,30.16,0,0,0,2.48,2.37,23.59,23.59,0,0,0,2.32-2.16ZM87,275.43c3.64-3.22,3.81-10.86.31-14.35-3.88-3.88-8.91,0-8.91,6.88s4.72,10.9,8.6,7.47Zm111.77,0c3.64-3.22,3.8-10.86.31-14.35-3.88-3.88-8.91,0-8.91,6.88s4.72,10.9,8.6,7.47Zm-29.91-36.36L165.77,236l-1.55,3.15-1.55,3.15,1.49,1.56,1.49,1.55,3.15-1.59,3.15-1.59Zm-56.51,1.53a6.52,6.52,0,0,0,1.73-2.21,8.46,8.46,0,0,0-1.92-2.49l-1.92-2-2,2a10,10,0,0,0-2,2.45c0,.62,3.26,3.89,3.89,3.89A7,7,0,0,0,112.35,240.6Zm86.09-17.87,19-19-6.56-6.54-6.57-6.55-3,3-3,3,1.16,1.24c1.9,2,1.29,5.1-1,5.1a5.33,5.33,0,0,1-2.43-1.29l-1.53-1.29-2.2,2.24c-2.19,2.23-2.19,2.25-1.15,3.2,1.4,1.27,1.78,2.64,1.09,3.94s-2.64,1.36-4.45-.06l-1.43-1.12-2.16,2.15-2.16,2.16,1.16,1.23c1.6,1.71,1.53,3.91-.16,4.68-1.17.53-1.51.42-2.9-.91l-1.57-1.5-2.35,2.31L173.91,221l1.41,1.47c1.2,1.25,1.33,1.68.9,2.91-.69,2-2.56,2.17-4.37.44l-1.41-1.35-2.32,2.36-2.32,2.37,6.27,6.28c3.45,3.46,6.52,6.29,6.81,6.29s9.1-8.56,19.56-19Zm-97.59,12.44c5.59-2.34,8.78-9.46,5.65-12.59-3.81-3.81-12.53,1.31-13.26,7.77C92.7,235.13,96,237.2,100.85,235.17Zm42.33-17.61c2.57-.71,5.54-3.57,5.54-5.33s-1.87-4-4-4.91c-2.72-1.13-8-.93-10.15.4-2.44,1.49-3.12,2.47-3.14,4.57C131.38,216.33,137.59,219.11,143.18,217.56Zm80.57-25.39,5-5-3.65-3.68a22.79,22.79,0,0,0-4.19-3.67c-.3,0-2.78,2.24-5.51,5l-5,5,3.65,3.68a23,23,0,0,0,4.2,3.67C218.54,197.15,221,194.91,223.75,192.17Z" transform="translate(-72.91 -167.51)"/><path id="path22999" class="cls-1" d="M135.85,334c-5.82-1.27-10.15-6.49-9.22-11.11a12.11,12.11,0,0,1,3.58-6.41l1.75-1.69.09-4.51.1-4.5-3.49-1.12A63.2,63.2,0,0,1,122,302l-3.19-1.54-3.11,3.31-3.11,3.31,0,2.35a19.31,19.31,0,0,1-.32,3.4c-1.35,5.05-6,7.73-11.3,6.55A14.84,14.84,0,0,1,93,315a15.08,15.08,0,0,1-4.45-8c-1-4.64,1-8.78,5-10.64,1.17-.53,2-.67,4.52-.79l3.1-.14,3.09-3.1,3.09-3.1-1.68-3.33a62.69,62.69,0,0,1-2.78-6.47l-1.1-3.13-4.51.07-4.52.08-1.59,1.62a13.44,13.44,0,0,1-3.15,2.41c-1.41.7-1.82.78-4,.78s-2.69-.1-3.79-.64c-2.62-1.27-5.43-4.93-6.3-8.21a22,22,0,0,1,.17-8.79c1-3.78,3.49-6.93,6.42-8.28a6.1,6.1,0,0,1,3.58-.56,7.89,7.89,0,0,1,3.44.73A27.37,27.37,0,0,1,93,259.88c.24.38,1.78.43,6,.17l2.74-.17,1-3.16A56.36,56.36,0,0,1,105.5,250c1-1.94,1.77-3.55,1.77-3.58s-1.41-1.33-3.13-2.9L101,240.7l-2.94-.18c-4-.24-5.19-.66-7.17-2.64-2.13-2.12-2.55-3.47-2.39-7.48.11-2.59.19-3,1.06-4.73a18.92,18.92,0,0,1,4.64-5.79,19.49,19.49,0,0,1,6.92-3.33,9.34,9.34,0,0,1,11.07,6.7,19.18,19.18,0,0,1,.32,3.39c0,2.1.13,2.46.77,3.4a29.79,29.79,0,0,0,4.91,4.8c.39.21,1.16-.06,3.73-1.28a68.09,68.09,0,0,1,6.53-2.64l3.3-1.08.16-4.19.17-4.18-1.89-2c-2.21-2.34-3.18-4-3.56-6.09-.74-4,1.75-8,6.37-10.24a14.28,14.28,0,0,1,6.79-1.52,15.19,15.19,0,0,1,10.52,3.84,7.76,7.76,0,0,1,2.9,5.71,9.86,9.86,0,0,1-3.34,8.25l-1.71,1.65-.09,4.54-.09,4.54.74.17a35.35,35.35,0,0,1,6.49,2.35l4.18,1.81,1,.43.72-.8a1.79,1.79,0,0,0,.1-2.73c-1.17-1.55-1.55-2.5-1.17-3,1.13-1.46,8.57-9.18,20.2-20.94,7.32-7.4,14.83-15,16.69-16.9l3.39-3.44-.57-1.08c-.7-1.35-.71-2.36,0-3.25,1-1.33,2.93-.57,5.72,2.29l1.43,1.48,5.28-5.28,5.28-5.28-1.88-2.11c-2.88-3.23-2.85-3.19-2.66-3.78.24-.76,1.65-2.11,2.2-2.11a16.45,16.45,0,0,1,3.31,2.57c3.36,3,16.75,16.56,19.2,19.38s2.38,2.67,2,3.62a1.8,1.8,0,0,1-1.89,1.34c-.7,0-3.14-1.72-4.6-3.24a3.71,3.71,0,0,0-1.18-.94c-.29,0-5.14,4.84-8.33,8.31-2,2.19-2,2,.32,4.57,1.87,2.07,2.2,2.63,2,3.4-.53,1.75-2.06,2.19-3.9,1.11l-1.08-.63-17.88,17.7c-18.38,18.19-21,20.68-23,22-1.43.94-2.1,1-2.92.08-1.05-1.13-1.66-1.23-3.12-.48a7.31,7.31,0,0,0-1.3.74c0,.05.64,1.49,1.41,3.2a64.66,64.66,0,0,1,2.42,6.32l1,3.21,4.5-.08,4.51-.07,1.77-1.85c2.37-2.49,4.12-3.35,7.07-3.47a5.7,5.7,0,0,1,3.83.72c4.56,2.25,7.44,7.6,7.11,13.22a15,15,0,0,1-4.21,9.94,7.54,7.54,0,0,1-6.3,2.6,6.76,6.76,0,0,1-4.06-.84,12,12,0,0,1-3.3-2.49L187,276.27l-4.78.14-4.78.14-1.13,3.13a66.49,66.49,0,0,1-2.71,6.26l-1.58,3.12,3.17,3.18,3.16,3.17,3.55.17c4.05.2,4.78.48,6.95,2.68a8.88,8.88,0,0,1,2.58,5c1.11,6-4.35,13.7-11.25,15.91-4.87,1.56-9.54-.18-11.81-4.42-.83-1.54-.89-1.85-1-4.81l-.15-3.15-1.36-1.58c-.75-.86-2.18-2.34-3.17-3.27l-1.81-1.71-3.24,1.6a64.38,64.38,0,0,1-6.26,2.64l-3,1-.18,4.8-.18,4.81,1.92,1.87c2.65,2.57,3.19,3.76,3.19,7,0,2.34,0,2.59-.89,4.14a12.71,12.71,0,0,1-8.15,5.91,24,24,0,0,1-8.24,0Zm7.26-4.6c2.39-.62,5.71-3.76,5.71-5.4a5.76,5.76,0,0,0-1.89-3.49c-3.43-3.33-10.63-3.19-14.07.28-2.22,2.25-2.13,4.47.3,6.66a10.81,10.81,0,0,0,10,1.95Zm-37.18-15.32a5.53,5.53,0,0,0,1.29-1.66c1.72-3.3-1.21-9.13-5.68-11.28a6.77,6.77,0,0,0-3.54-.83c-2.11,0-3.17.44-4.09,1.72a6.61,6.61,0,0,0-.61,4.33,5.16,5.16,0,0,1,.27,1.08,11.25,11.25,0,0,0,3,4.53,12.07,12.07,0,0,0,4.64,2.55c1.49.37,3.93.15,4.73-.44ZM180.5,314c4.72-2.18,7.74-8.51,5.67-11.91-.75-1.24-1.9-1.7-4.2-1.69-2.69,0-4.35.78-6.59,3.05-1.94,2-2.83,3.63-3,5.56-.25,3,.6,5,2.39,5.57a10.24,10.24,0,0,0,5.72-.58Zm-37.42-6.4c0-9,.4-10.8,2.3-11,1.05-.11,1.94.81,2.53,2.59.24.7.53,1.28.65,1.28a36.41,36.41,0,0,0,6.27-2.49,34.87,34.87,0,0,0,11.24-9.18,26.14,26.14,0,0,0,3.44-5.32,1.05,1.05,0,0,1,.25-.52,23.8,23.8,0,0,0,2.32-5.7c0-.77,0-.8-1.51-.95-2.7-.29-3.19-.42-3.86-1a2.5,2.5,0,0,1-.59-2.88c.59-.79,2.11-.95,10.73-1.14l8.31-.17-.08-3.16-.07-3.16-8.62-.14c-9.52-.15-10.39-.29-10.74-1.69-.46-1.84,1-2.74,4.57-2.74h2.33l-.38-1.63a35.85,35.85,0,0,0-3.31-7.88l-.58-.72-1.75.44c-1.75.44-1.75.44-3-.2l-1.29-.65-7.93,7.71c-8.9,8.64-10.71,10.25-11.54,10.24a3.69,3.69,0,0,1-1.55-.75l-1-.74,1.08-1.54c1.41-2,3.42-4.28,9.87-11.07l6.33-6.67,1-1-.62-1.27-.61-1.27.5-1.8c.27-1,.5-1.86.5-1.95a50.44,50.44,0,0,0-6-2.93,8.3,8.3,0,0,1-1.42-.54,6.46,6.46,0,0,0-1.88-.57c-.67,0-.73.18-1,3.22s-1.65,4.44-3.25,3.54c-1.18-.65-1.33-1.76-1.53-10.9l-.19-8.47-2.48.05c-4,.08-3.58-.38-3.78,4.68-.49,12.68-.58,14.42-.73,14.57a2.45,2.45,0,0,1-1.07.16c-2.33,0-2.78-.75-2.78-4.64v-2.79l-1,.18c-1.32.25-6.6,2.48-6.6,2.8,0,.14-.1.19-.22.11-.29-.18-3.61,1.87-5.65,3.49a38.17,38.17,0,0,0-9.07,10.83c-1.15,2.27-2.57,6.1-2.57,7s.13.95,3.58,1.18a7.1,7.1,0,0,1,3,.52,3.11,3.11,0,0,1,.2,1.6c-.12,2-.13,2-10.33,2.13l-8.69.09v6.49h6.6c7.24,0,10.9.28,11.82.89a2.2,2.2,0,0,1,.61,2.69c-.43.89-1.66,1.31-4.49,1.53l-2.06.16.13.95c.34,2.45,4.77,10.7,6.23,11.62.27.17.5.43.5.58,0,.58,6.21,6.14,6.85,6.14a2.11,2.11,0,0,1,.78.51,28.39,28.39,0,0,0,6,3c.27,0,.5.11.5.21s2.29,1,3,1,.9-.45.9-1.69a2.9,2.9,0,0,1,.54-1.54c.44-.56.76-.69,1.69-.69,2,0,2,.19,2.23,8.45.1,3.9.26,7.3.36,7.54.22.53.85.64,3.86.69l2.29,0v-5.68Zm-30.49-7.86,2.29-2.31-2.13-2a22.71,22.71,0,0,0-2.3-2,21.51,21.51,0,0,0-2.39,2.23l-2.21,2.22,2.07,2.09a24.73,24.73,0,0,0,2.23,2.09,32.85,32.85,0,0,0,2.44-2.31Zm59.43.15,2.15-2.16-2.49-2.48-2.48-2.47L166.92,295l-2.28,2.28,2.34,2.35a18,18,0,0,0,2.61,2.36,16.1,16.1,0,0,0,2.43-2.16Zm-85.49-24c1.6-1.07,2.78-3.25,3.24-6a8.72,8.72,0,0,0-.09-4,9.4,9.4,0,0,0-.62-2.24,1.07,1.07,0,0,1-.3-.55c-.3-1.39-2.72-3.41-4.31-3.59-2.22-.25-5,2.06-5.49,4.56a5.16,5.16,0,0,1-.32,1,13,13,0,0,0-.23,2.88,10.09,10.09,0,0,0,1.76,6.44q2.89,3.78,6.36,1.46Zm111.14.47a8.44,8.44,0,0,0,3.45-4.64,12.87,12.87,0,0,0-.34-8.06c-2.21-4.79-6.38-5.52-9.06-1.57-1.65,2.42-2.1,7.3-.95,10.21,1.42,3.59,4.4,5.35,6.9,4.06Zm-28.54-32.58,3-1.6L169,239c-1.7-1.71-3.16-3.1-3.24-3.1a25.5,25.5,0,0,0-1.69,3.13l-1.55,3.12.64.73c1.67,1.91,2.21,2.42,2.56,2.42a23.76,23.76,0,0,0,3.37-1.6Zm-56.47-3.41a9.3,9.3,0,0,0,1.46-1.77c.12-.41-.26-.94-2.4-3.22l-1.42-1.52L108.16,236c-2,2.08-2.13,2.2-1.8,2.83a13.07,13.07,0,0,0,1.92,2.17c1.56,1.48,1.6,1.5,2.32,1.13a11.58,11.58,0,0,0,2.06-1.78Zm85.71-17.51,19.19-19.14-6.61-6.6-6.6-6.61-3.07,3.06-3.07,3.06.75.8c1.62,1.7,2,3.46,1.06,4.67s-2,.94-3.91-.53l-1.62-1.22-2.07,2.1c-2.29,2.35-2.31,2.41-.83,4.07a2.49,2.49,0,0,1,.33,3.42c-.84,1.06-2.15,1-4.07-.35l-1.53-1.05-2.22,2.22-2.21,2.21,1,1c1.68,1.73,1.88,3.45.54,4.51-1,.82-1.72.65-3.34-.83l-1.48-1.35-2.38,2.38L173.81,221l1.25,1.35c1.17,1.24,1.25,1.42,1.12,2.38-.19,1.42-.82,2.05-2,2.05-.79,0-1.23-.23-2.33-1.22l-1.35-1.22-2.4,2.4-2.39,2.39,5.09,5.12c4.63,4.65,7.89,7.69,8.27,7.69.08,0,8.78-8.61,19.33-19.13Zm-97,12.22c3.08-1.49,6-5.26,6.32-8.24.23-2-.08-3.07-1.2-4.2s-2.15-1.42-4.32-1.24c-1.47.12-4.14,1.3-4.68,2-.16.24-.41.42-.55.41-.46-.06-2.75,3.06-3.27,4.46a7.9,7.9,0,0,0-.46,3.29c.07,2.14.49,3,1.84,3.87s4.24.62,6.32-.4Zm41.92-17.42c.59-.17,1.07-.42,1.07-.55s.09-.19.19-.13c.38.22,2.52-1.55,3.38-2.79,1-1.45,1.07-2.14.37-3.52-1.6-3.14-5.63-4.67-10.38-4-5.13.77-7.73,3.94-6.13,7.47,1.41,3.1,7.06,4.8,11.5,3.47Zm80.41-25.38,5.1-5L225,183.46a40.54,40.54,0,0,0-4.08-3.72c-.38,0-4.23,3.5-7.8,7.11l-3,3,3.8,3.71a30.46,30.46,0,0,0,4.21,3.7,53.64,53.64,0,0,0,5.51-5Z" transform="translate(-72.91 -167.51)"/><path id="path23038" class="cls-1" d="M137.71,334.14a12.39,12.39,0,0,1-8.44-4c-2.48-2.62-3.15-5.23-2.17-8.46a14.62,14.62,0,0,1,3.92-5.92l1.08-1v-9l-3.6-1.23c-2-.67-5-1.87-6.64-2.67l-3-1.46-2.31,2.42c-1.27,1.33-2.41,2.61-2.55,2.84a3.58,3.58,0,0,1-.81.87c-.49.39-.58.81-.74,3.38-.22,3.66-.9,5.36-2.88,7.24-2.39,2.26-5.65,2.95-9.4,2a14.14,14.14,0,0,1-7-4.29c-3.39-3.39-4.87-6.87-4.61-10.85a8.4,8.4,0,0,1,2.66-5.83c1.94-1.78,3-2.17,6.68-2.45l3.27-.26,3.18-3.14,3.17-3.15-1.81-3.69c-1-2-2.25-4.92-2.78-6.43-1.16-3.23-.67-3-6.29-2.74l-3.75.19L91,278.15c-2.76,2.49-3.91,3-7,3s-4.2-.45-6.42-2.72A13.58,13.58,0,0,1,73.71,267,14.36,14.36,0,0,1,78,257.28c2.09-1.95,3.19-2.4,5.8-2.37,3.16,0,3.95.42,8,3.92l1.61,1.39H96c1.43,0,3.32-.07,4.19-.17l1.59-.16,1.08-3.17c.6-1.74,1.85-4.76,2.78-6.71l1.7-3.55-1.78-1.7c-1-.93-2.37-2.23-3.09-2.88l-1.31-1.19L98,240.4a30.27,30.27,0,0,1-4.17-.61,11.28,11.28,0,0,1-4.63-4.34c-.54-1.1-.6-1.58-.56-4.44s.1-3.34.81-4.84a20.54,20.54,0,0,1,4.32-5.82c3.84-3.3,9.1-4.63,12.83-3.23a9.39,9.39,0,0,1,4.84,4.51c.67,1.38.81,2,1,4.49.21,3.45.31,3.66,3.32,6.6,1.61,1.56,2.39,2.15,2.88,2.15a10.9,10.9,0,0,0,2.71-.93c2.58-1.19,6.5-2.75,8.73-3.48l1.73-.57.17-2.54c.09-1.4.16-3.28.16-4.19V221.5l-2-2.23c-2.7-3.09-3.4-4.58-3.4-7.26a7.42,7.42,0,0,1,2.36-5.86A14.92,14.92,0,0,1,143,202a14.16,14.16,0,0,1,7.14,3.5c2.55,2.36,3.42,4.8,2.85,8a10.73,10.73,0,0,1-3.26,5.93l-1.69,1.8v4.48c0,3.36.08,4.51.32,4.58a64.09,64.09,0,0,1,8,3l4,1.72.78-.86c.92-1,.86-1.7-.32-3.56a5.38,5.38,0,0,1-.79-1.68c0-.6,4.25-5.05,22.32-23.38,8.65-8.77,16.23-16.5,16.85-17.19l1.14-1.25-.47-1c-.93-2.06-.35-3.65,1.32-3.65.93,0,3.19,1.52,4.82,3.24l.9.95,5.29-5.28,5.28-5.27-.57-.7c-.32-.39-1.31-1.55-2.21-2.58a8,8,0,0,1-1.63-2.41,3,3,0,0,1,.91-1.45l.91-.91.85.48c1,.58,17.51,16.82,21.27,21,1.81,2,2.71,3.2,2.71,3.6,0,.62-1.05,1.89-1.56,1.89s-2.31-1.07-4.12-2.59a15.48,15.48,0,0,0-2.09-1.59c-.22,0-7.11,6.93-8.91,8.95-1.31,1.48-1.32,1.45,1.17,4.3,1.25,1.43,1.66,2.1,1.66,2.69,0,1.75-2,2.37-4,1.25l-1-.57-13.38,13.33c-24.45,24.35-27.3,27-28.92,27a3.55,3.55,0,0,1-1.73-.8c-.76-.61-1.16-.76-1.67-.64a7.54,7.54,0,0,0-2.36,1.3c0,.05.6,1.48,1.33,3.18s1.8,4.54,2.38,6.3l1.05,3.2h8.9l2-2a19.13,19.13,0,0,1,3.07-2.47,11.66,11.66,0,0,1,5.93-.86c2.63.56,5.52,3,7.12,6a13.85,13.85,0,0,1,1.63,7,14.19,14.19,0,0,1-4.16,10.6c-2.09,2.09-3.34,2.59-6.43,2.59a6.39,6.39,0,0,1-3.71-.78,14.51,14.51,0,0,1-3.26-2.49l-1.69-1.7-4.82.17-4.81.18-1.14,3c-.62,1.67-1.83,4.5-2.68,6.29l-1.55,3.25,3.21,3.2,3.21,3.19,2.87.17c4.23.25,5.39.64,7.17,2.43a8.32,8.32,0,0,1,2.83,6.21c.22,3.92-1.16,7.07-4.64,10.59a13.72,13.72,0,0,1-4.44,3.33c-4.73,2.3-9.34,1.77-12.28-1.42-1.79-1.94-2.32-3.43-2.53-7l-.17-3.11-3.17-3.24L161,300.14l-2.17,1.09a87.37,87.37,0,0,1-9.07,3.78l-1.34.43-.16,2.54c-.1,1.4-.17,3.6-.17,4.9v2.36l1.71,1.69c2.67,2.62,3.09,3.51,3.21,6.69.09,2.59.08,2.7-.76,4.27a13.06,13.06,0,0,1-2.28,2.91c-3.1,2.83-6.56,3.78-12.21,3.34Zm4.34-4.42a8.66,8.66,0,0,0,4.76-2.56c2.25-2.18,2.52-3.37,1.18-5.38-2.37-3.59-8-4.77-12.69-2.65-2.58,1.19-4,2.89-4,4.85,0,3.8,5.49,6.74,10.74,5.74Zm-36.16-15.57c2.85-2.07,2.34-6.79-1.14-10.55-2.43-2.63-5.51-3.79-8.34-3.16-2.45.55-3.47,2.3-3.18,5.48.33,3.62,3.64,7.31,7.77,8.68a8.1,8.1,0,0,0,4.89-.45Zm74.89-.32c3.95-1.95,6.86-7.05,5.94-10.45a3.61,3.61,0,0,0-3.05-2.93c-2.93-.6-5.72.37-8.2,2.85-2.14,2.14-2.92,3.61-3.07,5.78-.17,2.32.06,3.46.91,4.46s1.43,1.27,3.76,1.19a7.28,7.28,0,0,0,3.71-.9Zm-37.62-7.16c.23-8.65.53-9.87,2.41-9.87,1,0,1.62.66,2.32,2.49.44,1.15.51,1.21,1.26,1.06a41.09,41.09,0,0,0,7.27-3.18,38.44,38.44,0,0,0,11.3-10.5c1.69-2.54,4.14-7.71,4.29-9.07s.21-1.23-2.92-1.58c-2-.23-3.1-1.18-3-2.66s.55-1.65,8.53-1.92c3.83-.12,7.77-.23,8.74-.24h1.76v-6.53l-4.51,0c-6.74,0-13.3-.37-14-.74a1.6,1.6,0,0,1-.7-2.29c.58-.88,1.45-1.15,4.25-1.32l2.43-.15-.17-.81a51.45,51.45,0,0,0-2.74-7.23c-1-2-1.29-2.2-2.71-1.84a4.83,4.83,0,0,1-3.81-.23l-1-.53-6.21,6c-7,6.8-11.4,10.92-12.42,11.58-.65.43-.73.42-1.73-.09a4.28,4.28,0,0,1-1.22-.82c-.42-.68,2.88-4.58,12-14.23,6.69-7.06,6-6.1,5.32-7.54-.59-1.2-.59-1.21-.12-3a6.37,6.37,0,0,0,.32-2.06c-.42-.67-8-4-9.19-4-.7,0-.8.25-1,2.62-.31,3-1.38,4.61-2.78,4.24s-1.7-2-1.94-11.89c-.1-4.14-.25-7.57-.34-7.62a33,33,0,0,0-5.9.41c-.09.09-.34,4.26-.55,9.27s-.44,9.28-.51,9.47c-.18.48-2.38.25-2.93-.3s-.83-2.22-.84-4.69,0-2.4-2.94-1.34a43.34,43.34,0,0,0-8.86,4.57,45.17,45.17,0,0,0-8.67,8.64c-2.12,3-4.63,8.63-4.63,10.41,0,.9.1.94,3.63,1.29a9.94,9.94,0,0,1,2.74.52,3.34,3.34,0,0,1-.22,2.86c-.35.35-1.8.45-9.42.65l-9,.24v6.37l7.67.17c10.33.23,11.4.47,11.4,2.53,0,1.61-.7,1.94-5.32,2.5l-1.27.15.13,1a28,28,0,0,0,3.16,7.35,36.35,36.35,0,0,0,11.61,11.86c3,1.79,8,3.88,9,3.78.79-.08.85-.16,1-1.39.27-1.92,1.64-2.92,3.19-2.32.65.25.89,1.74,1,6.63.09,2.52.23,5.67.31,7,.18,2.92.13,2.88,3.78,2.91H143l.17-6.6Zm-30.54-7,2.32-2.34L113,295.57a29.3,29.3,0,0,0-2.3-2c-.29-.17-1,.34-2.64,2l-2.25,2.25,2.08,2.09a24,24,0,0,0,2.23,2.1,31.42,31.42,0,0,0,2.47-2.34Zm59.4.18,2.15-2.16-2.49-2.48-2.48-2.47L166.92,295l-2.28,2.28,2.34,2.35a18,18,0,0,0,2.61,2.36,16.1,16.1,0,0,0,2.43-2.16ZM86.55,275.82c2.43-1.63,3.84-5.73,3.26-9.47A8.64,8.64,0,0,0,87,260.78c-2.07-1.82-4-1.79-6.09.11-1.62,1.46-2.38,3.31-2.52,6.12-.19,3.65.7,6.56,2.53,8.27a4.26,4.26,0,0,0,5.63.54Zm112.33-.46a11.55,11.55,0,0,0,1.88-2.6c.64-1.31.7-1.7.71-4.57s-.05-3.26-.73-4.7a6.82,6.82,0,0,0-3.11-3.56c-2.64-1.35-5.56.32-6.89,3.95a18.17,18.17,0,0,0-.39,7.23A8.82,8.82,0,0,0,193.5,276a3.35,3.35,0,0,0,2.69.66,3.17,3.17,0,0,0,2.69-1.26ZM169,243.86c1.61-.81,3-1.52,3.05-1.58a75,75,0,0,0-6.27-6.36A25.42,25.42,0,0,0,164,239l-1.63,3.11,1.48,1.59a6.54,6.54,0,0,0,1.84,1.59,24,24,0,0,0,3.3-1.46Zm-56.45-3.46c1-.93,1.51-1.68,1.51-2.05a6.69,6.69,0,0,0-1.76-2.49c-1-1.05-1.79-2-1.84-2a16,16,0,0,0-2.16,1.95c-1.29,1.29-2.08,2.28-2.08,2.63s.69,1.22,1.82,2.3c2.12,2.05,2.08,2.06,4.51-.32Zm79.08-10.83c6.85-6.79,15.5-15.37,19.24-19.06l6.79-6.71L211,197.13l-6.66-6.68-3.06,3.05-3,3.05.8,1c1.58,2,1.74,3.73.42,4.71-.82.62-1.25.5-3.37-.91l-1.61-1.08-2.06,2.11c-2.28,2.32-2.28,2.34-.91,4.09,1.06,1.37,1.07,2.6,0,3.49s-1.83.67-3.77-.62l-1.41-.93-2.22,2.22-2.22,2.22,1,1.19c1.29,1.57,1.53,3,.66,4s-1.8.83-3.52-.57l-1.49-1.21-2.36,2.36L173.83,221l1.2,1.48c1,1.26,1.19,1.59,1.06,2.31-.16.89-1.17,2-1.83,2s-1.35-.46-2.66-1.52l-1.12-.92-2.34,2.33a30.34,30.34,0,0,0-2.34,2.46c0,.43,12.68,12.81,13.12,12.81.15,0,5.88-5.56,12.72-12.36Zm-90.07,5.36a12.9,12.9,0,0,0,5.35-5.47c1-2.14,1.18-4.79.3-6.08a6.85,6.85,0,0,0-1.52-1.52c-.8-.54-1.15-.61-2.87-.53a9,9,0,0,0-6.43,3c-2,2-3,3.86-3.17,6s.06,3.34.9,4.33,1.47,1.29,3.74,1.22a7.26,7.26,0,0,0,3.7-.92ZM144,217.41c2.43-1.08,4.87-3.7,4.87-5.24,0-1.78-2-4.1-4.4-5a10.13,10.13,0,0,0-4.39-.59,8.85,8.85,0,0,0-3.29.3c-.21.18-.45.25-.53.17s-2,.74-3.14,1.52c-2.33,1.64-2.27,5.37.12,7.39s7.72,2.82,10.76,1.48Zm78.37-23.79c2.05-2,4.33-4.18,5.09-4.87a7.08,7.08,0,0,0,1.37-1.48,102,102,0,0,0-7.35-7.22c-.44-.31-.61-.29-1.22.1-1,.62-10,9.57-9.92,9.8a85.39,85.39,0,0,0,8,7.29,31.31,31.31,0,0,0,4.08-3.62Z" transform="translate(-72.91 -167.51)"/><path id="path23077" class="cls-2" d="M136,333.9a16.32,16.32,0,0,1-5.65-2.76,11.33,11.33,0,0,1-3.51-5.4c-.59-2.83.68-6.16,3.54-9.29l1.68-1.83v-8.87l-.72-.26-3.47-1.24c-1.5-.54-4.2-1.63-6-2.43l-3.24-1.45-2.06,2.2c-1.13,1.21-2.42,2.7-2.85,3.31a4.12,4.12,0,0,1-1,1.11,12.88,12.88,0,0,0-.5,3.16c-.35,3.65-.85,5-2.61,6.72a9.47,9.47,0,0,1-9,2.3c-3-.7-4.51-1.61-7.27-4.34s-4.18-5.1-4.7-8a9.37,9.37,0,0,1,3.5-9.49c1.57-1.06,2.48-1.32,5.91-1.63l3-.28,3.17-3.15,3.17-3.15-1.63-3.43c-.89-1.89-1.94-4.25-2.33-5.26l-1.17-3-.47-1.17-4.47,0-4.48.05-2,1.75c-2.83,2.47-3.8,2.86-7,2.85s-4-.37-6.33-2.81a13.2,13.2,0,0,1-3.6-6.94c-.09-.81-.2-1.71-.24-2a24.67,24.67,0,0,1,.92-6.59c1-3.13,3.86-6.44,6.2-7.28a13.35,13.35,0,0,1,5.57-.1c1.16.32,2.54,1.24,5,3.34l1.92,1.62h3c1.65,0,3.53-.07,4.19-.16,1.32-.18,1,.3,2.73-4.41.37-1,1.43-3.5,2.36-5.55l1.7-3.71-1.93-1.79c-4.46-4.13-4.12-3.9-6-4.09-3.39-.35-5.63-.73-6.31-1.09a12.41,12.41,0,0,1-3.88-4.08c-.41-.91-.51-1.72-.52-4.29v-3.17l1-2.06A16.09,16.09,0,0,1,100.66,217c4.56-1.07,8.7.72,10.68,4.63a11.53,11.53,0,0,1,1,4.52c.35,3.66.37,3.7,3.51,6.75,1.47,1.42,2.28,2,2.74,2a20.32,20.32,0,0,0,3.75-1.34c1.71-.73,4.51-1.84,6.24-2.45L131.7,230l.17-1.4c.1-.77.19-2.7.2-4.28l0-2.88-1.84-2.09a21.33,21.33,0,0,1-2.64-3.7c-.75-1.5-.8-1.77-.7-3.92a7,7,0,0,1,2.56-5.82,14.58,14.58,0,0,1,6.14-3.56,20,20,0,0,1,8-.14c3.87.94,7.49,3.59,8.79,6.43a6,6,0,0,1,.58,3.62c-.11,2.7-1.06,4.74-3.35,7.28L148,221.25l.08,4.5.07,4.49,2.48.84c1.37.46,4.11,1.53,6.11,2.37l3.63,1.52.75-.83a3,3,0,0,0,.75-1.35,8.38,8.38,0,0,0-.95-2.22l-.94-1.72,1-1.23c1.51-1.86,10.05-10.63,31.17-32,6.13-6.21,8.15-8.41,8-8.75-.68-2.08-.78-2.72-.55-3.39.62-1.76,2.7-1.2,5.64,1.53l1.66,1.54,5.3-5.31,5.3-5.3L216,174.11c-.87-1-1.89-2.26-2.26-2.79-.65-.93-.66-1-.26-1.63.8-1.22,1.5-1.71,2-1.43.27.14,3.74,3.4,7.72,7.24,7.63,7.37,15.54,15.59,16.18,16.83.45.87.2,1.54-.83,2.21-.62.41-.7.39-2.14-.57a33.64,33.64,0,0,1-2.83-2.12,7.35,7.35,0,0,0-1.58-1.14c-.26,0-8.24,8-9.33,9.36-.83,1.05-.78,1.18,1.45,3.83,1.76,2.09,2,2.75,1.41,3.66s-1.56,1.09-3.22.4l-1.43-.6L212.22,216c-21.24,21.12-28.63,28.3-31.29,30.4-1.86,1.47-2.32,1.53-3.9.52l-1.31-.85-1.15.44c-1.88.72-1.88.73-.31,4.63.78,1.92,1.86,4.76,2.39,6.3l1,2.81h9l.9-.94A32.92,32.92,0,0,1,190,257a8.64,8.64,0,0,1,6.15-2,5.84,5.84,0,0,1,3.28.76,14.35,14.35,0,0,1,5.37,5.65,15.16,15.16,0,0,1-2.91,17.16,7.51,7.51,0,0,1-6.72,2.5c-2.34-.15-3.92-1-6.46-3.31l-1.81-1.68-3.71.17c-2,.09-4.19.17-4.77.17h-1.07l-1,2.68c-.55,1.47-1.76,4.31-2.7,6.3L172,289l3.24,3.22,3.24,3.22,3.34.28c3.9.32,4.84.66,6.54,2.32a8.39,8.39,0,0,1,2.8,5c.76,4.3-.81,8.13-5,12.18-5.18,5-12,5.67-16,1.57a10.7,10.7,0,0,1-1.7-2.34,21.89,21.89,0,0,1-1.09-6.7c0-1.17,0-1.23-3.2-4.38L161,300.2l-3.65,1.66c-2,.92-4.84,2.1-6.3,2.63l-2.64,1-.16,1.74c-.1,1-.17,3.15-.17,4.86v3.1l1.85,2c2.3,2.42,2.84,3.58,3,6.55.14,2.12.1,2.38-.57,3.7a10.7,10.7,0,0,1-3.76,4.39c-2.5,1.74-4.1,2.2-8,2.3a28.28,28.28,0,0,1-4.54-.16Zm7.6-4.57a13.12,13.12,0,0,0,4.8-4.07,3.11,3.11,0,0,0-.39-3.43c-1.68-2.66-5.61-4.21-9.32-3.68-3.15.45-6,2.11-7,4.05a4.91,4.91,0,0,0-.37,1.86c0,2.4,2.39,4.67,5.88,5.58a14.11,14.11,0,0,0,6.45-.31Zm-37.75-15.17a5.93,5.93,0,0,0,1.34-1.7c2.21-4.23-2.87-11.5-8.51-12.17-2.76-.33-5,1-5.45,3.19-.8,4.25,2.22,9,6.92,10.87,1.65.66,4.66.56,5.7-.19Zm74.9-.34c4-1.95,7-7.35,5.93-10.59a3.77,3.77,0,0,0-2.9-2.77c-2.89-.7-5.86.34-8.46,2.94-2.08,2.08-2.8,3.47-3,5.72s.08,3.42.92,4.42,1.48,1.3,3.78,1.2a7.44,7.44,0,0,0,3.7-.92Zm-37.53-7.55c.32-7.56.52-8.81,1.54-9.27,1.29-.59,2.38.34,3.21,2.71.17.48.44.75.77.75.73,0,5.7-2.12,7.63-3.26a39.92,39.92,0,0,0,11-10.1c1.64-2.31,4.4-8.07,4.56-9.5l.13-1.14-1-.17c-3.93-.65-4.61-1-5-2.35-.26-1,.45-1.87,1.77-2.06,1-.14,13.72-.67,16.35-.68h.85v-6.53h-3.33c-4.14,0-13.48-.44-14.66-.68a1.6,1.6,0,0,1-.23-3.1,15.35,15.35,0,0,1,3.26-.54c1.67-.13,2.42-.29,2.42-.52,0-1.29-3.17-8.81-4-9.49-.36-.3-.72-.3-2.07,0a3.66,3.66,0,0,1-3-.27l-1.37-.58-6.86,6.65c-8.59,8.33-11.4,10.88-12.19,11.09s-2.38-.62-2.38-1.24c0-1,2.52-3.91,11.31-13.25,7.19-7.64,6.61-6.83,5.95-8.31-.51-1.16-.51-1.28-.12-3a6.26,6.26,0,0,0,.24-2.08c-.44-.7-7.94-3.91-9.14-3.91-.72,0-.75.07-1.19,3s-1.19,3.93-2.53,3.77a1.32,1.32,0,0,1-1.09-.84c-.45-.93-.77-5-1-12.7l-.19-5.88-2.48.07c-3.81.11-3.59,0-3.76,2.48-.09,1.18-.29,5.27-.45,9.08a72.29,72.29,0,0,1-.54,7.38c-.27.53-.52.55-1.81.19s-1.51-1-1.72-4.35l-.17-2.75-.94.15c-2.3.37-8.48,3.41-11.48,5.65a47.12,47.12,0,0,0-7.93,8.1c-2.15,3-4.65,8.66-4.65,10.48,0,.86.12.91,3.4,1.3a11.3,11.3,0,0,1,2.81.56,2.75,2.75,0,0,1,0,2.64c-.42.41-2.79.58-12.63.86l-5.81.17v6.37l8.3.28c9,.31,10.2.49,10.61,1.67.58,1.66-.49,2.59-3.37,3-.72.1-1.7.23-2.18.31l-.88.14.16,1.21c.2,1.46,2.48,6.28,4.24,8.95a47.22,47.22,0,0,0,9.12,9.18c3.48,2.26,9.07,4.74,10.41,4.61.71-.07.83-.21,1-1.13.29-1.44.68-2.11,1.42-2.45.9-.41,1.33-.36,1.9.21s.69,1.73,1.07,10.21c.21,4.59.3,5.4.69,5.68a7.88,7.88,0,0,0,3.1.33H143Zm-30.63-6.61,2.35-2.37-1.7-1.56c-3-2.77-2.57-2.76-5.18-.15l-2.26,2.26,2.08,2.09a24,24,0,0,0,2.23,2.1c.07,0,1.19-1.07,2.48-2.37Zm59.39.21,2.15-2.16-2.49-2.48-2.48-2.47L166.92,295l-2.28,2.28,2.34,2.35a18,18,0,0,0,2.61,2.36,15.48,15.48,0,0,0,2.43-2.16Zm-85.5-24c2.51-1.7,3.94-5.86,3.3-9.61A8.58,8.58,0,0,0,87,260.81c-2.09-1.86-4-1.83-6.09.08-1.82,1.64-2.45,3.34-2.47,6.65a27.74,27.74,0,0,0,.18,3.48,8.63,8.63,0,0,0,3.7,5.36,4.59,4.59,0,0,0,1.73.29,3.73,3.73,0,0,0,2.47-.84Zm112.22-.36a11.13,11.13,0,0,0,2-2.68c.67-1.36.72-1.69.72-4.73s0-3.32-.83-4.86c-1.84-3.53-4.57-4.67-7.19-3-2.16,1.36-3.33,4.23-3.34,8.14,0,4.83,2.49,8.33,5.95,8.34,1.29,0,1.48-.08,2.68-1.21ZM169,243.86c1.61-.81,3-1.52,3.05-1.58a69.84,69.84,0,0,0-6.3-6.36,21.88,21.88,0,0,0-1.79,3.16l-1.62,3.17,1.53,1.54a7.43,7.43,0,0,0,1.85,1.53,24.83,24.83,0,0,0,3.28-1.46Zm-56.45-3.46a4.88,4.88,0,0,0,1.51-2c0-.47-1.36-2.23-3.3-4.28-.32-.34-.64-.12-2.45,1.69-1.3,1.29-2.09,2.28-2.09,2.63s.69,1.22,1.82,2.3c2.12,2.05,2.08,2.06,4.51-.32Zm86.3-17.94,18.81-18.64L211,197.14l-6.66-6.69-3.06,3.06-3.07,3.06.61.79c1.55,2,1.84,3.5.9,4.51-.81.86-1.65.75-3.49-.45a4.11,4.11,0,0,0-2-.88,17.16,17.16,0,0,0-2.13,2.08c-1.93,2.1-1.94,2.13-.68,3.89.89,1.23,1,2.52.22,3.28s-2,.66-3.74-.43l-1.54-1-2.22,2.22L182,212.85l1,1.39c1.24,1.72,1.37,3.14.37,3.95-.83.67-1.59.47-3.36-.89l-1.38-1.07-2.34,2.33C175,219.84,173.9,221,173.9,221a9.47,9.47,0,0,0,1,1.41c1.28,1.55,1.35,2.42.29,3.61l-.76.85-1-.46a11.73,11.73,0,0,1-2-1.29l-1-.82-2.38,2.37-2.38,2.38,1.15,1.37c.63.75,3.54,3.64,6.46,6.43l5.32,5.06.7-.41c.38-.23,9.16-8.81,19.5-19.06Zm-97.13,12.42a13.55,13.55,0,0,0,5.19-5.42c1-2.14,1.18-4.79.3-6.08a6.85,6.85,0,0,0-1.52-1.52c-.8-.54-1.15-.61-2.87-.53a9,9,0,0,0-6.43,3c-2,2-3,3.86-3.17,6s.06,3.34.9,4.33,1.48,1.3,3.87,1.21a6.7,6.7,0,0,0,3.73-1Zm42.2-17.46c2.6-1.16,4.89-3.71,4.89-5.45s-2.26-4.1-4.76-5a17.88,17.88,0,0,0-6.74-.3,9.3,9.3,0,0,0-5.06,2.66,4.57,4.57,0,0,0-.47,4.8,8,8,0,0,0,5.6,3.74,13.82,13.82,0,0,0,6.54-.47Zm77.33-22.72c4.78-4.53,7.52-7.22,7.52-7.39s-1.83-2.13-4.86-5c-2.23-2.13-2.74-2.5-3.26-2.36s-10.43,9.6-10.43,10a80.47,80.47,0,0,0,8,7.3,18.66,18.66,0,0,0,3-2.54Z" transform="translate(-72.91 -167.51)"/><g id="g9852"><path id="path133" class="cls-3" d="M137.24,304.66v-8l-1.6-.6a3.08,3.08,0,0,0-4.37,2.18l-.38,1.52-3.08-1.17A34.47,34.47,0,0,1,110,282.22a30.06,30.06,0,0,1-2-4.8c0-.35,1.21-.64,2.68-.64,3.08,0,4.17-.82,4.17-3.11,0-2.87-.84-3.12-10.4-3.12H95.5v-5h8.91c9.56,0,10.4-.26,10.4-3.12,0-2.29-1.09-3.11-4.17-3.11-1.76,0-2.68-.28-2.68-.8A28.7,28.7,0,0,1,110,253.4a33.74,33.74,0,0,1,17.76-16.51l3.06-1.16.3,3.15c.31,3.24,1.09,4.24,3.31,4.25,2.49,0,2.77-1.06,2.77-10.56v-9.08l2.49.23,2.49.24v8.61c0,9.31.41,10.57,3.4,10.57,2,0,2.72-1.11,2.95-4.52l.19-2.94,4.22,2c4.13,1.92,4.2,2,3.83,4a5.87,5.87,0,0,0,.27,3.21c.56,1-.54,2.38-8.35,10.18-6.15,6.14-9,9.42-9,10.36,0,1.29,2.05,3.31,3.36,3.31.33,0,4.7-4.07,9.73-9.05,8.75-8.69,9.2-9,10.83-8.41a3.32,3.32,0,0,0,3,0c.69-.37,1.37-.57,1.5-.44a54.13,54.13,0,0,1,3.39,8c0,.34-1.1.61-2.45.61-3.84,0-5.75,2.93-3.42,5.25.8.8,2.62,1,10,1h9v5h-9c-7.34,0-9.16.18-10,1-2.34,2.34-.41,5.25,3.47,5.25,2.29,0,2.45.11,2.06,1.4a41.57,41.57,0,0,1-6.92,11.66,35.43,35.43,0,0,1-12.53,8.75l-3.26,1.23v-1.57c0-1.7-2.3-3.05-4.06-2.38s-2.17,2.55-2.17,9.46v6.83l-2.49.23-2.49.24Zm14.47-16.18c8.12-3.77,6.78-11.19-2.49-13.79-4.78-1.34-14.38-1.35-18.84,0-7.16,2.13-9.68,7.68-5.35,11.76,3.21,3,7.45,4.06,15.95,3.88,6.26-.14,7.61-.36,10.73-1.81Zm-19.14-23.81c6.17-2.58,6.25-12.6.13-15.5s-12.27,1-12.28,8.06c0,6.39,5.94,10,12.15,7.44Z" transform="translate(-72.91 -167.51)"/><path id="path172" class="cls-4" d="M137.57,312.41a56.47,56.47,0,0,1-.33-8.27v-7.95l-1.91-.42c-2-.44-4.32.93-4.32,2.6,0,1.23-.94,1.05-5.41-1.09-5-2.38-11.79-8.67-14.2-13.14a26.73,26.73,0,0,0-2.18-3.62,3.34,3.34,0,0,1-.36-1.87c0-1.32.37-1.59,2.21-1.76,2.78-.27,3.74-1.09,3.74-3.18,0-2.91-.81-3.16-10.4-3.16H95.5v-5h8.91c9.56,0,10.4-.26,10.4-3.12,0-2.08-1.06-3.11-3.19-3.11-2.84,0-3.73-.58-3-1.95a2.19,2.19,0,0,0,.3-1.75c-.19-.31-.13-.65.13-.76A21.66,21.66,0,0,0,111.7,251c1.79-3,9.8-11.57,10.88-11.66.17,0,1.86-.71,3.76-1.55a24.54,24.54,0,0,1,4.06-1.53c.49,0,.91,3.29.5,3.89a5.13,5.13,0,0,0,.65,1.56,3.43,3.43,0,0,0,4.94.65c.51-.51.75-3.56.75-9.69v-8.94l2.33.19,2.34.19.31,8.72c.17,4.8.54,9.07.82,9.5.65,1,3.83,1,4.64,0a10.13,10.13,0,0,0,1.07-3.42,8,8,0,0,1,.68-2.65c.13,0,1.76.75,3.63,1.66,3.37,1.65,3.38,1.68,3.6,4.83l.22,3.16-8.58,9.17c-4.86,5.19-8.57,9.68-8.57,10.35a3.57,3.57,0,0,0,3,3c.57.09,3.11-1.84,5.7-4.33,14.24-13.7,12.7-12.51,16.45-12.65l3.39-.12,1.34,3.11c1.55,3.61,1.3,4.86-.95,4.86-2.51,0-4,1.1-4,2.91,0,2.87,1.38,3.28,11.06,3.3l8.87,0v5h-8.76c-4.85,0-9.3.29-10,.65-1.62.87-1.62,4.07,0,4.94a7.26,7.26,0,0,0,2.83.64,2.19,2.19,0,0,1,1.95.87c.35.91-1.51,5-3.61,8-.67.94-1.05,1.71-.85,1.71,1.3,0-9.17,8.42-12.39,9.95-4.78,2.28-5.09,2.3-5.58.34a2.82,2.82,0,0,0-4.63-1.32c-.81.81-1.11,2.65-1.35,8.31l-.31,7.28-2,.41a4.43,4.43,0,0,1-2.34.07Zm11.91-22.91a16.83,16.83,0,0,0,5.57-3.16c2-1.9,2.21-2.36,1.94-4.69-.38-3.29-3.07-5.76-7.76-7.12-5.07-1.48-17.61-1-21,.81s-4.73,3.41-5.09,6.22c-.42,3.28,2,6.12,6.55,7.65s15.26,1.72,19.81.29Zm-15.92-25.35c2.65-1.79,3.66-3.77,3.67-7.19a8.38,8.38,0,0,0-4.83-8.13c-1.53-.83-7-.78-7,.06,0,.3-.27.39-.6.18s-1.45.81-2.49,2.24a8.17,8.17,0,0,0-1.89,6c0,3.16.18,3.59,2.49,5.83s2.85,2.42,5.52,2.42a8.61,8.61,0,0,0,5.13-1.42Z" transform="translate(-72.91 -167.51)"/><path id="path1902" class="cls-5" d="M81.56,274.85c-3.52-3.28-3.52-10.3,0-13.58,1.83-1.71,3.37-1.65,5.2.18a10,10,0,0,1,2.18,9.17c-.78,2.89-3.08,5.54-4.82,5.54a4.82,4.82,0,0,1-2.56-1.31Z" transform="translate(-72.91 -167.51)"/><path id="path1941" class="cls-5" d="M136.38,216.74c-2.34-.84-4.44-3.07-4.44-4.71,0-1.15,2-3.19,4.17-4.32s6.5-.84,8.72.52c4.31,2.62,4.06,6-.58,8.14A8.88,8.88,0,0,1,136.38,216.74Z" transform="translate(-72.91 -167.51)"/><path id="path2019" class="cls-5" d="M94.92,234.06c-3.37-3.37,2.43-12.1,8-12.1s5.16,7.59-.88,11.67c-2.44,1.64-5.76,1.84-7.17.43Z" transform="translate(-72.91 -167.51)"/><path id="path2058" class="cls-4" d="M193.4,274.88c-3.41-2.69-3.62-9.93-.38-13.17,2.2-2.21,3.35-2.2,5.58,0a9.46,9.46,0,0,1,0,12.64c-2.11,2.11-3,2.2-5.2.5Z" transform="translate(-72.91 -167.51)"/><path id="path2097" class="cls-5" d="M174.5,313.67c-2.51-1.6-1.93-6.23,1.17-9.41,6.74-6.9,14.07-1.67,8.29,5.91C181.41,313.5,176.88,315.18,174.5,313.67Z" transform="translate(-72.91 -167.51)"/><path id="path2136" class="cls-5" d="M136,328.38c-2.19-1.21-4.05-3.19-4.05-4.33,0-1.88,2.67-4.22,5.7-5a7.32,7.32,0,0,1,5.79.35c5.33,2,6,5.71,1.45,8.46-2.25,1.38-6.85,1.65-8.89.52Z" transform="translate(-72.91 -167.51)"/><path id="path2175" class="cls-5" d="M98.88,312.74c-4.28-2.89-6.3-8.34-4-10.69,1.41-1.4,4.73-1.2,7.17.44,4.28,2.89,6.3,8.34,4,10.69C104.64,314.59,101.32,314.38,98.88,312.74Z" transform="translate(-72.91 -167.51)"/><path id="path5314" class="cls-6" d="M172.75,235.28l-6.35-6.35,2-2,2-2,1,1c1.11,1.09,1.49,1.33,2.3,1.47a3,3,0,0,0,3-1.67,3.56,3.56,0,0,0,0-2.37,9.57,9.57,0,0,0-1.24-1.47l-1-1,2-2,2-2,1,1c1.15,1.13,1.35,1.26,2.15,1.41a2.84,2.84,0,0,0,3.3-3.49c-.14-.57-.31-.81-1.29-1.82l-1.13-1.17,2-2,2-2,1.05,1c1.19,1.17,1.63,1.4,2.7,1.4a2.8,2.8,0,0,0,2.85-2.81c0-.85-.37-1.54-1.43-2.66l-1-1.09,2-2,2-2,1.11,1.12a4.92,4.92,0,0,0,1.67,1.31,2.78,2.78,0,0,0,3.77-2.65c0-1-.26-1.54-1.45-2.75l-1.06-1.08,2.77-2.77,2.77-2.76,6.35,6.35,6.35,6.35L198,222.71,179.1,241.63Z" transform="translate(-72.91 -167.51)"/><path id="path5353" class="cls-6" d="M214.64,193.39l-3.55-3.55,4.95-5,5-4.94,3.55,3.54,3.55,3.55-5,5-4.95,4.95Z" transform="translate(-72.91 -167.51)"/><path id="path5392" class="cls-6" d="M164.35,243.69l-1.3-1.31,1.33-2.68c.73-1.48,1.38-2.78,1.45-2.9s.55.21,2.89,2.55l2.76,2.76-2.88,1.44c-1.59.8-2.9,1.44-2.92,1.44s-.62-.58-1.33-1.3Z" transform="translate(-72.91 -167.51)"/><path id="path5431" class="cls-7" d="M135.1,284.24c-2.82-.54-5-1.31-5.56-2-.33-.39-.14-.59,1.12-1.14,5.13-2.27,16.15-2,19.53.46.6.44.58.49-.48,1.14-2.64,1.6-10.09,2.38-14.61,1.52Z" transform="translate(-72.91 -167.51)"/><g id="path5470" class="cls-8"><path class="cls-4" d="M127,258.6a2.49,2.49,0,0,1,.88-4.1,2.53,2.53,0,0,1,3.27,3.27,2.5,2.5,0,0,1-4.15.83Z" transform="translate(-72.91 -167.51)"/><path class="cls-9" d="M127,258.6a2.49,2.49,0,0,1,.88-4.1,2.53,2.53,0,0,1,3.27,3.27,2.5,2.5,0,0,1-4.15.83Z" transform="translate(-72.91 -167.51)"/></g><path id="path5548" class="cls-10" d="M108.2,240.07l-1.8-1.81,1.06-.85a14.83,14.83,0,0,0,1.9-1.9l.85-1.06,1.85,1.85,1.86,1.86L112.07,240a26.17,26.17,0,0,1-2,1.86A24.91,24.91,0,0,1,108.2,240.07Z" transform="translate(-72.91 -167.51)"/><path id="path5587" class="cls-7" d="M109.29,300.55a14.38,14.38,0,0,0-1.83-1.83l-1.06-.84,2-2,2-2,1.89,1.83,1.89,1.83-2,2c-1.09,1.11-2,2-2.07,2a8.08,8.08,0,0,1-.86-1Z" transform="translate(-72.91 -167.51)"/><path id="path5626" class="cls-7" d="M167.53,299.44l-2.09-2.1,1.91-1.93,1.91-1.93,2.11,2.11a23.56,23.56,0,0,1,2.07,2.21,11.56,11.56,0,0,1-1,.94,24.63,24.63,0,0,0-1.77,1.77,10.07,10.07,0,0,1-.94,1,21.23,21.23,0,0,1-2.21-2.06Z" transform="translate(-72.91 -167.51)"/><g id="text8239" class="cls-11"><text class="cls-12" transform="translate(192.1 79.39)"><tspan class="cls-13">V</tspan><tspan x="31.7" y="0">accines</tspan></text></g><g id="text9155" class="cls-11"><text class="cls-12" transform="translate(194.27 136.08)"><tspan class="cls-13">T</tspan><tspan x="28.79" y="0">racker</tspan></text></g></g></svg>